<!DOCTYPE svg PUBLIC "-//W3C//DTD SVG 1.1//EN" "http://www.w3.org/Graphics/SVG/1.1/DTD/svg11.dtd">
<svg xmlns="http://www.w3.org/2000/svg" xmlns:xlink="http://www.w3.org/1999/xlink" version="1.1" width="641px" height="255px" viewBox="-0.5 -0.5 641 255">
    <rect x="0" y="4" width="280" height="170" rx="4" ry="4" fill-opacity="0.2" fill="#b7c2dd" pointer-events="none"/>
    <text x="26" y="26" fill="#B7C2DD" text-anchor="middle" font-size="14px" font-family="Helvetica" font-weight="bold">App</text>

    <rect x="360" y="4" width="280" height="250" rx="5" ry="5" fill-opacity="0.2" fill="#b7c2dd" stroke="none" pointer-events="none"/>
    <text x="414.5" y="28" fill="#B7C2DD" text-anchor="middle" font-size="14px" font-family="Helvetica" font-weight="bold">XPC Service</text>

    <path d="M 500 124 Q 500 64 320 64 Q 140 64 140 117.63" fill="none" stroke="#b7c2dd" stroke-miterlimit="10" pointer-events="none"/>
    <path d="M 140 122.88 L 136.5 115.88 L 140 117.63 L 143.5 115.88 Z" fill="#b7c2dd" stroke="#b7c2dd" stroke-miterlimit="10" pointer-events="none"/>
    <text x="320" y="57" fill="#B7C2DD" text-anchor="middle" font-size="14px" font-family="Helvetica">Service Protocol</text>
    
    <rect x="10" y="44" width="260" height="40" rx="6" ry="6" fill-opacity="0.2" fill="#b7c2dd" stroke="none" pointer-events="none"/>
    <text x="140" y="70" fill="#B7C2DD" text-anchor="middle" font-size="14px" font-family="Helvetica">NSXPCConnection</text>

    <rect x="370" y="44" width="260" height="40" rx="6" ry="6" fill-opacity="0.2" fill="#b7c2dd" stroke="none" pointer-events="none"/>
    <text x="500" y="70" fill="#B7C2DD" text-anchor="middle" font-size="14px" font-family="Helvetica">NSXPCConnection</text>
    
    <rect x="10" y="124" width="260" height="40" rx="6" ry="6" fill-opacity="0.2" fill="#b7c2dd" stroke="none" pointer-events="none"/>
    <text x="140" y="150" fill="#B7C2DD" text-anchor="middle" font-size="14px" font-family="Helvetica">Remote Object Proxy</text>

    <rect x="370" y="124" width="260" height="40" rx="6" ry="6" fill-opacity="0.2" fill="#b7c2dd" stroke="none" pointer-events="none"/>
    <text x="500" y="150" fill="#B7C2DD" text-anchor="middle" font-size="14px" font-family="Helvetica">Exported Object</text>
    
    <rect x="370" y="204" width="260" height="40" rx="6" ry="6" fill-opacity="0.2" fill="#b7c2dd" stroke="none" pointer-events="none"/>
    <text x="500" y="230" fill="#B7C2DD" text-anchor="middle" font-size="14px" font-family="Helvetica">NSXPCListener</text>
</svg>