<!DOCTYPE svg PUBLIC "-//W3C//DTD SVG 1.1//EN" "http://www.w3.org/Graphics/SVG/1.1/DTD/svg11.dtd">
<svg xmlns="http://www.w3.org/2000/svg" xmlns:xlink="http://www.w3.org/1999/xlink" version="1.1" width="640px" height="320px" viewBox="0 0 640 320">

    <g transform="translate(0, 0)">
        <rect x="0" y="0" width="210" height="140" rx="4" ry="4" fill-opacity="0.2" fill="#b7c2dd" pointer-events="none"/>
        <text x="15" y="28" fill="#B7C2DD" text-anchor="left" font-size="14px" font-family="Helvetica" font-weight="bold">Host Application</text>

        <g transform="translate(25, 50)">
            <rect x="0" y="0" width="160" height="60" rx="4" ry="4" fill-opacity="0.2" fill="#b7c2dd" pointer-events="none"/>
            <text x="80" y="34" fill="#B7C2DD" text-anchor="middle" font-size="14px" font-family="Helvetica">NSXPCConnection</text>

            <g transform="translate(40, 60)">
                <circle r="10" fill-opacity="0.8" fill="#7986CB"/>
                <text x="0" y="5" fill="#C5CAE9" text-anchor="middle" font-size="13px" font-family="Helvetica">1</text>
            </g>

            <g transform="translate(80, 60)">
                <circle r="10" fill-opacity="0.8" fill="#7986CB"/>
                <text x="0" y="5" fill="#C5CAE9" text-anchor="middle" font-size="13px" font-family="Helvetica">2</text>
            </g>

            <g transform="translate(120, 60)">
                <circle r="10" fill-opacity="0.8" fill="#7986CB"/>
                <text x="0" y="5" fill="#C5CAE9" text-anchor="middle" font-size="13px" font-family="Helvetica">3</text>
            </g>
        </g>
    </g>

    <g transform="translate(260, 50)">
        <rect x="0" y="0" width="120" height="60" rx="4" ry="4" fill-opacity="0.2" fill="#b7c2dd" pointer-events="none"/>
        <text x="60" y="34" fill="#B7C2DD" text-anchor="middle" font-size="14px" font-family="Helvetica">launchd</text>
    </g>

    <g transform="translate(430, 0)">
        <rect x="0" y="0" width="210" height="320" rx="4" ry="4" fill-opacity="0.2" fill="#b7c2dd" pointer-events="none"/>
        <text x="15" y="28" fill="#B7C2DD" text-anchor="left" font-size="14px" font-family="Helvetica" font-weight="bold">XPC Service</text>

        <g transform="translate(25, 50)">
            <rect x="0" y="0" width="160" height="60" rx="4" ry="4" fill-opacity="0.2" fill="#b7c2dd" pointer-events="none"/>
            <text x="80" y="34" fill="#B7C2DD" text-anchor="middle" font-size="14px" font-family="Helvetica">NSXPCListener</text>
        </g>

        <g transform="translate(25, 140)">
            <rect x="0" y="0" width="160" height="60" rx="4" ry="4" fill-opacity="0.2" fill="#b7c2dd" pointer-events="none"/>
            <text x="80" y="34" fill="#B7C2DD" text-anchor="middle" font-size="14px" font-family="Helvetica">Delegate Object</text>
        </g>

        <g transform="translate(25, 230)">
            <rect x="0" y="0" width="160" height="60" rx="4" ry="4" fill-opacity="0.2" fill="#b7c2dd" pointer-events="none"/>
            <text x="80" y="34" fill="#B7C2DD" text-anchor="middle" font-size="14px" font-family="Helvetica">NSXPCConnection</text>
        </g>
    </g>

    <g transform="translate(260, 80) scale(-1,1)">
        <path d="M 0 0 L 75 0" fill="none" stroke="#b7c2dd" stroke-miterlimit="10"/>
        <path d="M 0 0 L 8 4 L 6 0 L 8 -4 Z" fill="#b7c2dd" stroke="#b7c2dd" stroke-miterlimit="10"/>

        <g transform="translate(40, 0) scale(-1,1)">
            <circle r="10" fill-opacity="0.8" fill="#7986CB"/>
            <text x="0" y="5" fill="#C5CAE9" text-anchor="middle" font-size="13px" font-family="Helvetica">4</text>
        </g>
    </g>

    <g transform="translate(455, 80) scale(-1,1)">
        <path d="M 0 0 L 75 0" fill="none" stroke="#b7c2dd" stroke-miterlimit="10"/>
        <path d="M 0 0 L 8 4 L 6 0 L 8 -4 Z" fill="#b7c2dd" stroke="#b7c2dd" stroke-miterlimit="10"/>

        <g transform="translate(40, 0) scale(-1,1)">
            <circle r="10" fill-opacity="0.8" fill="#7986CB"/>
            <text x="0" y="5" fill="#C5CAE9" text-anchor="middle" font-size="13px" font-family="Helvetica">5</text>
        </g>
    </g>

    <g transform="translate(535, 140) rotate(-90)">
        <path d="M 0 0 L 30 0" fill="none" stroke="#b7c2dd" stroke-miterlimit="10"/>
        <path d="M 0 0 L 8 4 L 6 0 L 8 -4 Z" fill="#b7c2dd" stroke="#b7c2dd" stroke-miterlimit="10"/>

        <g transform="translate(15, -20) rotate(90)">
            <circle r="10" fill-opacity="0.8" fill="#7986CB"/>
            <text x="0" y="5" fill="#C5CAE9" text-anchor="middle" font-size="13px" font-family="Helvetica">6</text>
        </g>
    </g>

    <g transform="translate(535, 230) rotate(-90)">
        <path d="M 0 0 L 30 0" fill="none" stroke="#b7c2dd" stroke-miterlimit="10"/>
        <path d="M 0 0 L 8 4 L 6 0 L 8 -4 Z" fill="#b7c2dd" stroke="#b7c2dd" stroke-miterlimit="10"/>

        <g transform="translate(15, -20) rotate(90)">
            <circle r="10" fill-opacity="0.8" fill="#7986CB"/>
            <text x="0" y="5" fill="#C5CAE9" text-anchor="middle" font-size="13px" font-family="Helvetica">7</text>
        </g>

        <g transform="translate(15, -45) rotate(90)">
            <circle r="10" fill-opacity="0.8" fill="#7986CB"/>
            <text x="0" y="5" fill="#C5CAE9" text-anchor="middle" font-size="13px" font-family="Helvetica">8</text>
        </g>

        <g transform="translate(15, -70) rotate(90)">
            <circle r="10" fill-opacity="0.8" fill="#7986CB"/>
            <text x="0" y="5" fill="#C5CAE9" text-anchor="middle" font-size="13px" font-family="Helvetica">9</text>
        </g>
    </g>

    <g transform="translate(590, 110) rotate(90)">
        <path d="M 0 0 L 120 0" fill="none" stroke="#b7c2dd" stroke-miterlimit="10"/>
        <path d="M 0 0 L 8 4 L 6 0 L 8 -4 Z" fill="#b7c2dd" stroke="#b7c2dd" stroke-miterlimit="10"/>

        <g transform="translate(15, -20) rotate(-90)">
            <circle r="10" fill-opacity="0.8" fill="#7986CB"/>
            <text x="-0.5" y="4.5" fill="#C5CAE9" text-anchor="middle" font-size="12px" font-family="Helvetica">10</text>
        </g>
    </g>

</svg>