<!DOCTYPE svg PUBLIC "-//W3C//DTD SVG 1.1//EN" "http://www.w3.org/Graphics/SVG/1.1/DTD/svg11.dtd">
<svg xmlns="http://www.w3.org/2000/svg" xmlns:xlink="http://www.w3.org/1999/xlink" version="1.1" width="641px" height="330px" viewBox="-0.5 -0.5 641 330">

    <rect x="0" y="0" width="280" height="250" rx="4" ry="4" fill-opacity="0.2" fill="#b7c2dd" pointer-events="none"/>
        <text x="26" y="22" fill="#B7C2DD" text-anchor="middle" font-size="14px" font-family="Helvetica" font-weight="bold">App</text>

    <rect x="360" y="0" width="280" height="330" rx="5" ry="5" fill-opacity="0.2" fill="#b7c2dd" stroke="none" pointer-events="none"/>
        <text x="414.5" y="24" fill="#B7C2DD" text-anchor="middle" font-size="14px" font-family="Helvetica" font-weight="bold">XPC Service</text>



    <path d="M 500 80 Q 500 135 320 135 Q 140 135 140 80" fill="none" stroke="#b7c2dd" stroke-miterlimit="10" pointer-events="none"/>
    <path d="M 500 80 L 504 88 L 500 86 L 496 88 Z" fill="#b7c2dd" stroke="#b7c2dd" stroke-miterlimit="10" pointer-events="none"/>
        <text x="320" y="125" fill="#B7C2DD" text-anchor="middle" font-size="14px" font-family="Helvetica">App Protocol</text>

    <path d="M 500 200 Q 500 145 320 145 Q 140 145 140 200" fill="none" stroke="#b7c2dd" stroke-miterlimit="10" pointer-events="none"/>
    <path d="M 140 200 L 136 192 L 140 194 L 144 192 Z" fill="#b7c2dd" stroke="#b7c2dd" stroke-miterlimit="10" pointer-events="none"/>
        <text x="320" y="165" fill="#B7C2DD" text-anchor="middle" font-size="14px" font-family="Helvetica">Service Protocol</text>



    <rect x="10" y="40" width="260" height="40" rx="6" ry="6" fill-opacity="0.2" fill="#b7c2dd" stroke="none" pointer-events="none"/>
        <text x="140" y="66" fill="#B7C2DD" text-anchor="middle" font-size="14px" font-family="Helvetica">Exported Object</text>

    <rect x="10" y="120" width="260" height="40" rx="6" ry="6" fill-opacity="0.2" fill="#b7c2dd" stroke="none" pointer-events="none"/>
        <text x="140" y="146" fill="#B7C2DD" text-anchor="middle" font-size="14px" font-family="Helvetica">NSXPCConnection</text>

    <rect x="10" y="200" width="260" height="40" rx="6" ry="6" fill-opacity="0.2" fill="#b7c2dd" stroke="none" pointer-events="none"/>
        <text x="140" y="226" fill="#B7C2DD" text-anchor="middle" font-size="14px" font-family="Helvetica">Remote Object Proxy</text>



    <rect x="370" y="40" width="260" height="40" rx="6" ry="6" fill-opacity="0.2" fill="#b7c2dd" stroke="none" pointer-events="none"/>
        <text x="500" y="66" fill="#B7C2DD" text-anchor="middle" font-size="14px" font-family="Helvetica">Remote Object Proxy</text>
    
    <rect x="370" y="120" width="260" height="40" rx="6" ry="6" fill-opacity="0.2" fill="#b7c2dd" stroke="none" pointer-events="none"/>
        <text x="500" y="146" fill="#B7C2DD" text-anchor="middle" font-size="14px" font-family="Helvetica">NSXPCConnection</text>
    
    <rect x="370" y="200" width="260" height="40" rx="6" ry="6" fill-opacity="0.2" fill="#b7c2dd" stroke="none" pointer-events="none"/>
        <text x="500" y="226" fill="#B7C2DD" text-anchor="middle" font-size="14px" font-family="Helvetica">Exported Object</text>

    <rect x="370" y="280" width="260" height="40" rx="6" ry="6" fill-opacity="0.2" fill="#b7c2dd" stroke="none" pointer-events="none"/>
        <text x="500" y="306" fill="#B7C2DD" text-anchor="middle" font-size="14px" font-family="Helvetica">NSXPCListener</text>

</svg>