<!DOCTYPE svg PUBLIC "-//W3C//DTD SVG 1.1//EN" "http://www.w3.org/Graphics/SVG/1.1/DTD/svg11.dtd">
<!-- viewBox="0 0 700 300" -->
<svg xmlns="http://www.w3.org/2000/svg" xmlns:xlink="http://www.w3.org/1999/xlink" version="1.1" viewBox="0 0 1152 384">

    <g transform="translate(0, 0)">
        <rect x="0" y="0" width="1152" height="100%" rx="12" ry="12" fill-opacity="0.1" fill="#b7c2dd" pointer-events="none"/>

        <g transform="translate(576, 20)">
            <g transform="translate(-100, 0)">
                <rect x="0" y="0" width="200" height="44" rx="4" ry="4" fill-opacity="0.2" fill="#b7c2dd" pointer-events="none"/>
                <text x="100" y="27" fill="#B7C2DD" text-anchor="middle" font-size="14px" font-family="Helvetica" font-weight="regular">Split View Controller</text>
            </g>

            <g transform="translate(-390, 100)">
                <rect x="0" y="0" width="200" height="44" rx="4" ry="4" fill-opacity="0.2" fill="#b7c2dd" pointer-events="none"/>
                <text x="100" y="27" fill="#B7C2DD" text-anchor="middle" font-size="14px" font-family="Helvetica" font-weight="regular">Tab View Controller</text>
            </g>

            <g transform="translate(-510, 200)">
                <rect x="0" y="0" width="200" height="44" rx="4" ry="4" fill-opacity="0.2" fill="#b7c2dd" pointer-events="none"/>
                <text x="100" y="27" fill="#B7C2DD" text-anchor="middle" font-size="14px" font-family="Helvetica" font-weight="regular">Navigation Controller</text>
            </g>

            <g transform="translate(-510, 300)">
                <rect x="0" y="0" width="200" height="44" rx="4" ry="4" fill-opacity="0.2" fill="#b7c2dd" pointer-events="none"/>
                <text x="100" y="27" fill="#B7C2DD" text-anchor="middle" font-size="14px" font-family="Helvetica" font-weight="regular">Table View Controller</text>
            </g>

            <g transform="translate(-270, 200)">
                <rect x="0" y="0" width="200" height="44" rx="4" ry="4" fill-opacity="0.2" fill="#b7c2dd" pointer-events="none"/>
                <text x="100" y="27" fill="#B7C2DD" text-anchor="middle" font-size="14px" font-family="Helvetica" font-weight="regular">Navigation Controller</text>
            </g>

            <g transform="translate(-270, 300)">
                <rect x="0" y="0" width="200" height="44" rx="4" ry="4" fill-opacity="0.2" fill="#b7c2dd" pointer-events="none"/>
                <text x="100" y="27" fill="#B7C2DD" text-anchor="middle" font-size="14px" font-family="Helvetica" font-weight="regular">Collection View Controller</text>
            </g>

            <g transform="translate(190, 100)">
                <rect x="0" y="0" width="200" height="44" rx="4" ry="4" fill-opacity="0.2" fill="#b7c2dd" pointer-events="none"/>
                <text x="100" y="27" fill="#B7C2DD" text-anchor="middle" font-size="14px" font-family="Helvetica" font-weight="regular">Navigation Controller</text>
            </g>

            <g transform="translate(190, 200)">
                <rect x="0" y="0" width="200" height="44" rx="4" ry="4" fill-opacity="0.2" fill="#b7c2dd" pointer-events="none"/>
                <text x="100" y="27" fill="#B7C2DD" text-anchor="middle" font-size="14px" font-family="Helvetica" font-weight="regular">(Placeholder)</text>
            </g>

            <g transform="translate(0, 0)" stroke="#b7c2dd" stroke-miterlimit="10" opacity="0.3">
                <path d="M 0 44 v 20" fill="none" stroke="#b7c2dd" stroke-miterlimit="10"/>
                
                <path d="M 0 64 q 0 8, -8 8 h -274 q -8 0, -8 8 v 20" fill="none"/>
                <text x="-280" y="90" fill="#B7C2DD" stroke="none" text-anchor="start" font-size="12px" font-family="Helvetica" font-weight="regular">Master</text>

                <path d="M 0 64 q 0 8, 8 8 h 274 q 8 0, 8 8 v 20" fill="none"/>
                <text x="280" y="90" fill="#B7C2DD" stroke="none" text-anchor="end" font-size="12px" font-family="Helvetica" font-weight="regular">Detail</text>

                <path d="M -290 144 v 20" fill="none" stroke="#b7c2dd" stroke-miterlimit="10"/>
                
                <path d="M -290 164 q 0 8, -8 8 h -104 q -8 0, -8 8 v 20" fill="none"/>
                <text x="-400" y="190" fill="#B7C2DD" stroke="none" text-anchor="start" font-size="12px" font-family="Helvetica" font-weight="regular">Tab 1</text>

                <path d="M -290 164 q 0 8, 8 8 h 104 q 8 0, 8 8 v 20" fill="none"/>
                <text x="-180" y="190" fill="#B7C2DD" stroke="none" text-anchor="end" font-size="12px" font-family="Helvetica" font-weight="regular">Tab 2</text>

                <path d="M -410 244 v 56" fill="none" stroke="#b7c2dd" stroke-miterlimit="10"/>
                <text x="-400" y="290" fill="#B7C2DD" stroke="none" text-anchor="start" font-size="12px" font-family="Helvetica" font-weight="regular">Root</text>

                <path d="M -170 244 v 56" fill="none" stroke="#b7c2dd" stroke-miterlimit="10"/>
                <text x="-180" y="290" fill="#B7C2DD" stroke="none" text-anchor="end" font-size="12px" font-family="Helvetica" font-weight="regular">Root</text>

                <path d="M 290 144 v 56" fill="none" stroke="#b7c2dd" stroke-miterlimit="10"/>
                <text x="280" y="190" fill="#B7C2DD" stroke="none" text-anchor="end" font-size="12px" font-family="Helvetica" font-weight="regular">Root</text>
            </g>
        </g>
    </g>

</svg>